<?xml version="1.0" encoding="utf-8"?>
<!-- Generator: Adobe Illustrator 22.1.0, SVG Export Plug-In . SVG Version: 6.00 Build 0)  -->
<svg version="1.1" id="Layer_1" xmlns="http://www.w3.org/2000/svg" xmlns:xlink="http://www.w3.org/1999/xlink" x="0px" y="0px"
	 viewBox="0 0 80 80" style="enable-background:new 0 0 80 80;" xml:space="preserve">
<rect y="0" class="yellow" width="15" height="30"/>
<rect x="65" y="65" class="yellow" width="15" height="15"/>
<rect x="15" y="15" class="pink" width="50" height="10"/>
<rect x="15" y="30" class="pink" width="50" height="10"/>
<rect x="15" y="45" class="pink" width="50" height="20"/>
<rect y="0.3" class="line" width="80" height="80"/>
<rect x="15" y="15.3" class="line" width="50" height="10"/>
<rect x="15" y="30.3" class="line" width="50" height="10"/>
<rect x="15" y="45.3" class="line" width="50" height="20"/>
<rect x="40" y="70" class="blue" width="25" height="10"/>
<line class="line" x1="15" y1="0.3" x2="15" y2="80.3"/>
<line class="line" x1="65" y1="0.3" x2="65" y2="80.3"/>
<line class="line" x1="0" y1="30.3" x2="15" y2="30.3"/>
<line class="line" x1="65" y1="65.3" x2="80" y2="65.3"/>
<rect x="40" y="70" class="line" width="25" height="10"/>
</svg>
