<?xml version="1.0" encoding="utf-8"?>
<!-- Generator: Adobe Illustrator 22.1.0, SVG Export Plug-In . SVG Version: 6.00 Build 0)  -->
<svg version="1.1" id="Layer_1" xmlns="http://www.w3.org/2000/svg" xmlns:xlink="http://www.w3.org/1999/xlink" x="0px" y="0px"
	 viewBox="0 0 80 80" style="enable-background:new 0 0 80 80;" xml:space="preserve">
<rect x="50" y="30" class="pink" width="30" height="15"/>
<polygon class="yellow" points="15.8,0 15.8,10.3 70,10.3 70,20 40,20 40,30 40,55 45,55 50,55 70,55 70,70 45,70 45,80 70,80 75,80 
	80,80 80,55 80,50 80,45 50,45 50,30 70,30 75,30 80,30 80,10.3 80,10 80,0 "/>
<rect x="15" y="10" class="blue" width="25" height="10"/>
<rect x="15" y="55" class="blue" width="55" height="15"/>
<rect x="15" y="30" class="blue" width="25" height="15"/>
<rect y="0.3" class="line" width="80" height="80"/>
<rect x="15" y="10.3" class="line" width="55" height="10"/>
<rect x="15" y="30" class="line" width="25" height="15.3"/>
<rect x="50" y="30" class="line" width="30" height="15.3"/>
<rect x="15" y="55.3" class="line" width="55" height="15"/>
<line class="line" x1="40" y1="10.3" x2="40" y2="55.3"/>
<line class="line" x1="15" y1="20.3" x2="15" y2="55.3"/>
<line class="line" x1="15" y1="0.3" x2="15" y2="20.3"/>
<line class="line" x1="45" y1="70.3" x2="45" y2="80.3"/>
</svg>
